<svg width="321" height="322" viewBox="0 0 321 322" fill="none" xmlns="http://www.w3.org/2000/svg">
<path d="M160.35 320.7C248.909 320.7 320.7 248.909 320.7 160.35C320.7 71.7911 248.909 0 160.35 0C71.7911 0 0 71.7911 0 160.35C0 248.909 71.7911 320.7 160.35 320.7Z" fill="#FDFDFD"/>
<path d="M151.98 321.04C150.46 320.2 148.76 320.5 147.15 320.37C117.621 317.918 89.3515 307.324 65.4846 289.765C41.6177 272.206 23.0892 248.371 11.96 220.91C4.47935 202.426 0.671748 182.661 0.74996 162.72C0.74996 161.15 1.01996 160.56 2.74996 160.58C13.59 160.7 24.44 160.68 35.28 160.71C35.45 164.52 35.56 168.33 35.8 172.13C36.4194 182.77 38.5716 193.265 42.19 203.29C49.8107 224.359 62.9313 243.004 80.19 257.29C92.7095 267.862 107.232 275.8 122.89 280.63C153.181 290.078 185.913 287.845 214.64 274.37C235.628 264.549 253.434 249.029 266.03 229.58C276.535 213.566 283.079 195.283 285.12 176.24C285.7 171.05 285.78 165.84 286 160.63C297 160.63 308.08 160.63 319.12 160.54C320.97 160.54 320.76 161.54 320.76 162.67C320.911 194.063 311.389 224.74 293.49 250.53C268.49 286.93 234.09 309.29 190.85 318.07C184.216 319.374 177.5 320.216 170.75 320.59C170.27 320.59 169.65 320.36 169.33 321L151.98 321.04ZM269.19 267.52L275.47 261.02L275.22 260.53C274 261.53 272.93 262.16 271.66 260.65C268.74 257.18 265.66 253.83 262.66 250.42C262.32 250.04 261.87 249.77 262.31 249.08C262.753 248.322 263.459 247.752 264.293 247.477C265.127 247.203 266.033 247.243 266.84 247.59C267.39 247.81 267.84 248.53 268.79 248.07C267.84 246.98 266.9 246.07 266.12 244.98C265.34 243.89 265.12 244.37 264.47 244.98C261.14 248.54 257.77 252.06 254.47 255.61C254.19 255.91 253.47 256.22 253.97 256.71C254.902 258.047 256.044 259.225 257.35 260.2C256.35 256.02 256.35 255.49 257.78 253.86C258.43 253.1 258.78 252.86 259.6 253.79C262.51 257.19 265.49 260.53 268.48 263.86C268.952 264.241 269.258 264.79 269.337 265.391C269.415 265.992 269.258 266.601 268.9 267.09C268.63 267.24 268.31 267.48 268.56 267.76C268.81 268.04 268.98 267.72 269.19 267.52ZM67.74 256.65C67.98 256.91 68.25 257.43 68.59 257.02C68.93 256.61 68.41 256.43 68.09 256.26C66.29 254.4 64.57 252.44 62.16 251.15C62.89 252.38 62.42 253.25 61.7 254.15C59.32 257.15 56.99 260.15 54.6 263.15C53.42 264.62 52.47 266.83 49.84 265.06L56.84 271.73C55.76 269.07 55.76 269.07 57.68 266.68C58.3094 265.986 58.8876 265.248 59.41 264.47C60.3 262.97 61 263.06 62.21 264.26C65.36 267.38 65.42 267.26 62.67 270.78C61.46 272.29 60.52 274.45 57.88 272.72L64.88 279.34L65.52 279.01C64.16 277.95 63.73 276.86 64.82 275.52C67.68 271.993 70.5133 268.437 73.32 264.85C73.5404 264.461 73.9064 264.174 74.3376 264.054C74.7688 263.934 75.23 263.99 75.62 264.21L75.76 264.3C76.02 264.54 76.28 265.13 76.64 264.72C77 264.31 76.42 264.12 76.1 263.93C74.3975 261.96 72.4286 260.236 70.25 258.81C70.38 259.58 70.83 260.26 70.36 260.94C69.11 262.74 68.04 265.12 66.16 265.82C65.16 266.21 63.64 263.62 62.27 262.48C62.17 262.4 62.08 262.3 61.98 262.21C61.8609 262.13 61.7776 262.008 61.7477 261.868C61.7178 261.727 61.7437 261.581 61.82 261.46L61.91 261.36C63.23 259.76 64.51 258.14 65.91 256.6C66.46 255.93 67.19 256.37 67.74 256.65ZM187.37 294.12L197.86 308.24C198.64 301.86 199.35 296.02 200.13 289.62C201.397 293.389 202.442 297.229 203.26 301.12C203.72 302.98 205.05 305.2 201.64 306.12C204.31 306.06 210.08 304.22 210.91 303.36C208.55 303.36 208.49 303.31 207.91 300.9C207.05 297.39 206.18 293.9 205.35 290.37C204.88 288.37 203.5 286.18 206.67 284.81C204.49 285.22 202.6 285.81 200.67 286.29C200.211 286.355 199.794 286.591 199.503 286.951C199.212 287.311 199.068 287.768 199.1 288.23C198.87 290.96 198.55 293.68 198.16 296.4C198.134 297.677 197.897 298.94 197.46 300.14C195.1 296.87 192.89 293.78 190.65 290.7C190.32 290.24 190.1 289.45 189.35 289.7C187.1 290.31 184.88 291.02 182.64 291.7L182.54 292.28C185.3 291.38 185.61 293.2 186.02 294.95C186.76 298.07 187.57 301.18 188.27 304.31C188.76 306.5 190.27 308.88 187.21 310.69C189.35 310.04 191.46 309.95 193.28 308.63C191.7 308.77 190.54 308.49 190.14 306.78L187.14 294.3C187.223 294.249 187.3 294.188 187.37 294.12ZM157.52 301.65C157.52 307.82 161.52 312.25 167.11 312.25C172.7 312.25 176.77 307.94 176.84 301.95C176.91 295.96 172.98 291.71 167.65 291.65C161.71 291.56 157.56 295.65 157.52 301.65ZM20.01 219.12C20.1692 221.788 21.1904 224.332 22.92 226.37C24.015 227.737 25.5066 228.732 27.1898 229.217C28.873 229.702 30.6651 229.655 32.32 229.08C34.2848 228.464 36.0115 227.257 37.2644 225.622C38.5172 223.988 39.2351 222.007 39.32 219.95C39.5 215.51 36.67 210.57 33.1 209.06C27.05 206.55 20.12 211.54 20.01 219.12ZM305.19 181.54L304.57 181.69L302.49 190.86C303.56 190.13 303.81 188.5 305.57 189.19C306.457 189.491 307.362 189.739 308.28 189.93C308.532 189.968 308.765 190.085 308.945 190.265C309.125 190.445 309.242 190.678 309.28 190.93C309.403 191.671 309.379 192.43 309.209 193.162C309.038 193.894 308.726 194.585 308.288 195.196C307.851 195.807 307.297 196.326 306.659 196.723C306.021 197.12 305.311 197.387 304.57 197.51C301.749 197.75 298.923 197.111 296.48 195.68C293.65 194.15 292.59 192.22 292.92 189.34C293.092 188.007 293.649 186.753 294.523 185.732C295.397 184.71 296.55 183.966 297.84 183.59C298.48 183.39 299.27 183.48 300.01 182.59L293.61 180.85C294.86 182.48 294.19 183.66 293.32 184.99C291.699 187.486 291.021 190.479 291.41 193.43C291.621 195.747 292.627 197.921 294.256 199.582C295.884 201.244 298.037 202.292 300.35 202.55C304.35 202.94 308.35 199.92 309.79 195.35C310.407 193.09 310.743 190.762 310.79 188.42C310.92 186.13 310.17 184.96 307.85 184.68C306.19 184.54 304.65 183.98 305.19 181.54ZM89.74 294L89.8 294.8L95.62 297.49L95.94 297.02C94.94 296.24 93.66 295.51 94.23 294.02C95.66 290.17 97.14 286.34 98.81 281.95C100.7 289.05 102.44 295.56 104.21 302.23C104.841 301.732 105.268 301.021 105.41 300.23C106.99 296.23 108.53 292.23 110.09 288.28C110.79 286.5 111.09 284.28 113.97 284.48L108.56 281.97L108.26 282.46C109.09 283.14 110.26 283.73 109.88 284.97C108.96 287.82 107.88 290.62 106.88 293.44C105.584 289.813 104.489 286.118 103.6 282.37C102.82 279.3 100.07 277.14 96.29 276.91C98.77 278.46 98.38 280.26 97.52 282.28C96.13 285.53 94.9 288.86 93.64 292.17C92.97 293.82 92.24 295.3 89.74 294ZM302.85 218C302.48 217 301.75 216.89 301.2 216.59C297.66 214.68 294.1 212.83 290.58 210.91C288.87 209.98 286.58 209.37 288.02 206.25L287.24 206.42L284.66 212.12C286.51 210.75 286.81 210.47 287.79 210.93C290.28 212.09 292.7 213.4 295.68 214.93C291.53 215.93 288.05 216.85 284.54 217.65C282.94 218.02 281.54 218.33 280.97 220.28C280.462 221.779 279.84 223.236 279.11 224.64C281.46 222.9 281.73 222.87 284.11 224.16C287.24 225.82 290.36 227.5 293.51 229.16C294.79 229.82 295.51 230.72 295.05 232.22C294.96 232.56 294.68 233 295.43 233.22L298.18 226.98C297.01 227.5 296.48 229.12 295.06 228.43C291.48 226.71 287.99 224.82 284.06 222.76L302.85 218ZM213.03 282.37C215.51 282.26 215.53 282.25 216.53 284.7C217.95 288.16 219.357 291.63 220.75 295.11C221.111 295.971 221.408 296.856 221.64 297.76C221.9 298.95 220.43 299.14 219.86 300.53L227.86 296.62C225.99 296.37 225.4 295.11 224.86 293.67C224.479 292.529 224.018 291.416 223.48 290.34C223.04 289.47 223.26 289.04 224.1 288.64C225.521 288.035 226.792 287.123 227.82 285.97C228.567 285.102 229.015 284.017 229.096 282.875C229.177 281.732 228.887 280.595 228.27 279.63C227.714 278.695 226.842 277.99 225.811 277.641C224.781 277.293 223.659 277.324 222.65 277.73C219.26 278.73 216.19 280.67 213.03 282.35V282.37ZM243.03 265.21C245.09 263.71 246.03 264.94 246.96 266.45C248.17 268.45 249.41 270.45 250.65 272.45C251.481 273.684 252.131 275.031 252.58 276.45C252.861 277.528 252.747 278.67 252.257 279.671C251.767 280.671 250.934 281.462 249.91 281.9C248.15 282.66 247.02 282.19 245.54 279.9C243.69 277.03 241.9 274.12 240.1 271.22C239.36 270.04 238.58 268.84 240.1 267.43L239.58 267.21L232.74 272.21L232.84 272.95C234.84 271.13 235.62 272.49 236.45 273.83C238.2 276.68 239.95 279.53 241.73 282.36C242.144 283.132 242.736 283.794 243.458 284.29C244.18 284.786 245.011 285.101 245.88 285.21C250.88 285.67 255.52 279.37 253.45 274.86C252.45 272.68 251.06 270.69 249.85 268.61C248.873 267.173 248.017 265.658 247.29 264.08C246.5 261.95 246.65 261.87 244.77 263.3C244.19 263.81 243.35 264.09 243.07 265.21H243.03ZM17.33 200.92C16.88 200.57 16.47 200.26 16.06 199.92C11.06 196.35 11.68 190.32 17.24 187.81C18.881 187.038 20.6668 186.622 22.48 186.59C25.48 186.59 27.48 187.8 28.39 190.19C28.8598 191.416 28.9567 192.754 28.6684 194.035C28.3802 195.316 27.7197 196.483 26.77 197.39C26.29 197.87 25.43 198.04 25.3 199.24L31.48 197.56L31.61 197.04C29.87 196.89 29.74 195.88 29.92 194.62C30.1754 193.028 30.1245 191.403 29.77 189.83C28.77 185.9 26.52 183.07 22.57 181.92C20.9531 181.428 19.2271 181.422 17.6071 181.904C15.9872 182.386 14.5448 183.334 13.46 184.63C9.45996 188.87 10.39 197.48 15.11 200.81C15.383 201.117 15.7661 201.304 16.1762 201.33C16.5862 201.356 16.9901 201.22 17.3 200.95L17.33 200.92ZM45.12 253.98L43.37 253.6C38.37 252.54 36.37 247.7 39.17 243.42C40.3537 241.624 41.9257 240.117 43.77 239.01C46.54 237.32 49.28 237.43 51.2 239.24C52.1551 240.238 52.7791 241.506 52.9867 242.872C53.1943 244.237 52.9754 245.633 52.36 246.87C52.11 247.43 51.44 247.87 51.82 248.92L56.82 244.69C54.82 244.84 54.6 243.54 54.25 242.28C53.633 239.784 52.1744 237.576 50.12 236.03C48.6176 234.883 46.795 234.233 44.9059 234.17C43.0168 234.108 41.1551 234.635 39.58 235.68C37.8477 236.804 36.4995 238.429 35.7151 240.339C34.9307 242.249 34.7475 244.353 35.19 246.37C36.19 250.81 39.74 254.57 43.19 255C43.5768 255.093 43.9841 255.043 44.3369 254.859C44.6897 254.675 44.9642 254.37 45.11 254L45.12 253.98ZM147.12 307.29C146.41 307.38 146.12 307.97 145.64 308.29C141.52 311.29 136.82 309.42 136.11 304.38C135.631 301.46 135.978 298.464 137.11 295.73C137.51 294.62 138.25 293.664 139.225 293C140.2 292.336 141.36 291.996 142.54 292.03C143.736 292.18 144.858 292.694 145.752 293.503C146.646 294.311 147.27 295.375 147.54 296.55C147.71 297.13 147.46 297.92 148.54 298.37C148.8 296.02 149.06 293.79 149.34 291.26C147.6 292.78 147.59 292.8 145.72 291.77C144.578 291.069 143.296 290.624 141.965 290.467C140.634 290.31 139.284 290.444 138.01 290.86C135.311 291.876 133.123 293.918 131.924 296.541C130.725 299.164 130.612 302.154 131.61 304.86C131.69 305.07 131.78 305.28 131.87 305.49C134.38 310.82 141.41 312.82 145.98 309.49C146.74 309.02 147.47 308.49 147.11 307.25L147.12 307.29ZM82.67 268.44C84.18 269.5 83.96 270.65 83.19 272.01C81.26 275.44 79.37 278.91 77.49 282.37C76.69 283.87 76.03 285.5 73.19 284.79L81.33 290.12L81.78 289.81C79.53 288.41 80.17 286.89 81.17 285.19C82.96 282.13 84.57 278.98 86.32 275.9C87.22 274.3 87.7 271.9 90.71 273.47C88.01 271.51 85.64 269.55 82.66 268.44H82.67ZM289.12 242.71L289.01 241.87C287.49 243.66 286.52 242.54 285.53 241.79C282.65 239.62 279.81 237.38 276.92 235.22C275.32 234.02 273.55 232.95 275.65 230.38H274.9L270.17 237.68C271.93 237.01 272.95 238.13 274.05 238.97C276.82 241.08 279.55 243.23 282.36 245.28C284.01 246.48 285.52 247.61 283.75 250.02L284.38 250.11L289.12 242.71Z" fill="#D7261E"/>
<path d="M285.93 160.67C285.71 165.88 285.63 171.09 285.05 176.28C283.012 195.33 276.468 213.62 265.96 229.64C250.884 252.541 228.758 269.908 202.93 279.11C177.103 288.312 148.98 288.849 122.82 280.64C107.168 275.831 92.6456 267.916 80.1201 257.37C62.8614 243.084 49.7408 224.438 42.1201 203.37C38.538 193.322 36.4229 182.811 35.8401 172.16C35.6001 168.36 35.4901 164.55 35.3201 160.74C35.7401 155.74 35.9001 150.74 36.5301 145.74C39.5301 122.28 49.0401 101.74 64.3901 83.9199C85.9101 58.9199 113.15 44.2199 145.91 40.3399C202.71 33.5899 255.99 65.4199 276.91 116.7C282.412 130.2 285.417 144.586 285.78 159.16C285.79 159.61 285.88 160.12 285.93 160.67ZM73.4401 195.37C72.5701 196.45 70.8201 196.18 70.1401 197.48C68.923 199.537 68.2294 201.862 68.1201 204.25C65.2201 204.84 64.6101 204.57 63.4101 202.14C59.1801 193.64 55.0401 185.14 50.6801 176.66C49.0603 173.833 48.3613 170.572 48.6801 167.33C49.1801 162.75 48.9601 162.81 44.3501 162.4C42.5901 162.24 42.3001 162.78 42.3501 164.4C42.8401 197.4 55.6301 224.81 79.8001 247.07C98.7201 264.5 120.87 274.88 146.54 277.42C171.33 279.87 195.08 276.24 216.95 263.86C241.54 249.94 259.95 230.29 270.39 203.73C276.04 189.01 278.451 173.246 277.46 157.51C277.187 151.184 276.404 144.89 275.12 138.69C270.35 116.49 259.02 97.9599 243.12 81.9899C241.12 79.9899 241.12 79.9899 239.66 82.5199C239.002 83.5248 238.407 84.5702 237.88 85.6499C237.38 86.7799 236.62 87.0599 235.37 86.6499C229.83 85.0899 224.27 83.6499 218.72 82.1199C217.827 81.8502 216.873 81.8502 215.98 82.1199C211.87 83.3099 207.75 84.4799 203.61 85.5699C203.134 85.6743 202.695 85.9077 202.342 86.2446C201.99 86.5814 201.736 87.0088 201.61 87.4799C199.61 93.0699 197.46 98.6299 195.46 104.23C195.332 104.742 195.057 105.205 194.667 105.56C194.277 105.916 193.791 106.149 193.27 106.23C189.05 107.23 184.87 108.5 180.65 109.51C180.032 109.558 179.457 109.843 179.043 110.305C178.63 110.767 178.41 111.37 178.43 111.99C177.99 116.38 177.31 120.75 176.79 125.14C176.65 126.35 176.39 126.82 175.13 126.14C173.87 125.46 172.53 125.04 171.35 124.31C170.17 123.58 169.68 124.09 169.29 125.22C168.459 127.832 167.491 130.399 166.39 132.91C164.826 135.961 164.514 139.502 165.52 142.78C165.963 144.598 166.297 146.442 166.52 148.3C166.012 148.932 165.702 149.699 165.627 150.507C165.552 151.314 165.717 152.125 166.1 152.84C166.88 154.45 166.24 154.97 164.85 155.57C156.94 158.97 149.1 162.57 141.19 165.9C136.97 167.7 132.9 169.9 128.49 171.22C126.899 169.612 124.751 168.677 122.49 168.61C118.36 168.45 114.23 167.95 110.11 167.5C108.54 167.32 106.92 167.42 105.41 166.7C102.82 165.48 100.15 164.41 97.5701 163.15C97.3771 163.013 97.159 162.916 96.9284 162.864C96.6978 162.811 96.4591 162.805 96.226 162.845C95.9929 162.885 95.7699 162.97 95.5699 163.096C95.3698 163.222 95.1966 163.387 95.0601 163.58C95.011 163.646 94.9675 163.716 94.9301 163.79C90.4299 169.792 85.4106 175.387 79.9301 180.51C75.4101 184.58 72.6401 188.95 73.4601 195.16C73.4622 195.23 73.4555 195.301 73.4401 195.37Z" fill="#1F1A17"/>
<path d="M163.6 30.3C161.89 30.4 160.18 30.51 158.47 30.6C157.72 30.65 157.47 30.01 157.15 29.54C155.53 27.32 153.94 25.09 152.33 22.87C152.02 22.44 151.72 21.87 151.06 22.15C150.4 22.43 150.67 22.97 150.74 23.38C151.12 25.62 150.24 28.04 151.74 30.15C152.08 30.61 151.38 31.01 150.82 31.04C148.63 31.17 146.44 31.28 143.99 31.22C147.71 30.22 146.32 27.53 146.3 25.38C146.3 22.24 146.08 19.09 145.89 15.96C145.77 14.18 146.33 11.88 143.26 12.25C143.33 11.61 143.62 11.57 143.87 11.56C147.631 11.1783 151.411 11.0314 155.19 11.12C156.312 11.0995 157.409 11.4573 158.303 12.1357C159.197 12.8141 159.837 13.7737 160.12 14.86C160.471 15.9551 160.434 17.1378 160.016 18.2089C159.597 19.28 158.821 20.1739 157.82 20.74C156.92 21.31 156.75 21.65 157.43 22.52C158.84 24.3 160.15 26.17 161.43 28.02C161.698 28.4451 162.051 28.8097 162.468 29.0903C162.885 29.371 163.355 29.5616 163.85 29.65L163.6 30.3ZM150.35 16.37C150.41 17.43 150.53 18.5 150.54 19.56C150.55 20.62 150.95 20.9 152.01 20.72C153.45 20.47 154.87 20.22 155.36 18.64C155.706 17.767 155.821 16.8194 155.693 15.889C155.565 14.9587 155.199 14.0772 154.63 13.33C154.149 12.8066 153.517 12.4457 152.822 12.297C152.127 12.1483 151.403 12.2192 150.75 12.5C149.6 12.87 150.5 14.13 150.36 14.97C150.312 15.4352 150.308 15.9041 150.35 16.37Z" fill="#D7261E"/>
<path d="M31.51 126.66C30.43 129.06 30.4 131.66 29.78 134.19C29.58 134.99 29.43 135.81 29.24 136.69C28.24 136.29 28.99 135.19 28.11 135.03C27.5011 135.009 26.9038 135.2 26.42 135.57L20.95 138.57C20.46 138.83 19.84 139.45 20.7 139.63C23.13 140.16 25.49 141.79 28.25 140.34C28.33 143.34 27.34 146.08 26.71 148.92C26.04 148.04 26.88 146.65 25.71 146.13C24.7151 145.743 23.6877 145.445 22.64 145.24C19.64 144.53 16.64 143.84 13.64 143.15C10.64 142.46 10.79 142.5 9.12 144.89L10.98 135.31C11.76 136.14 11.33 137.45 12.54 137.78C14.3838 138.352 16.2745 138.76 18.19 139C19.05 139.07 18.6 138 18.31 137.49C17.1946 135.529 16.1929 133.506 15.31 131.43C14.94 130.66 14.74 129.63 13.8 129.43C12.59 129.16 13.02 130.79 11.8 131.26L13.34 123.47C14.19 127.13 16.34 130.11 17.61 133.47C18.09 134.72 18.61 134.88 19.81 134.1C22 132.69 24.36 131.55 26.64 130.29C28.16 129.44 29.78 128.72 30.53 126.97C30.78 126.4 31.22 126.85 31.53 126.76L31.51 126.66Z" fill="#D7261E"/>
<path d="M242.75 40.04C242.75 45.64 238.29 50.63 233.3 50.63C227.99 50.63 223.24 45.63 223.3 40.09C223.3 34.38 227.7 29.48 232.73 29.49C238.04 29.51 242.76 34.46 242.75 40.04ZM238.91 37.12C239.03 34.49 238.57 32.91 236.81 31.94C236.145 31.5236 235.357 31.3499 234.579 31.4483C233.8 31.5468 233.08 31.9112 232.54 32.48C230.844 34.0574 229.492 35.9692 228.572 38.0947C227.651 40.2203 227.18 42.5136 227.19 44.83C227.199 45.6449 227.47 46.4352 227.964 47.0837C228.458 47.7322 229.147 48.2043 229.93 48.43C230.596 48.6841 231.325 48.7243 232.015 48.5451C232.705 48.3659 233.322 47.9761 233.78 47.43C236.492 44.5903 238.281 40.9959 238.91 37.12Z" fill="#D7261E"/>
<path d="M285.62 113.84C285.586 111.479 286.372 109.179 287.843 107.332C289.315 105.485 291.381 104.205 293.69 103.71C298.22 102.88 302.18 105.48 303.93 110.44C305.68 115.4 304.54 120.14 300.75 122.85C294.51 127.31 286.82 123.52 285.75 115.44C285.66 114.84 285.65 114.24 285.62 113.84ZM298.19 108.12C294.488 108.52 291.047 110.213 288.47 112.9C287.811 113.581 287.387 114.455 287.26 115.394C287.132 116.332 287.307 117.288 287.76 118.12C288.082 118.869 288.644 119.49 289.357 119.887C290.07 120.283 290.894 120.432 291.7 120.31C295.679 120.062 299.409 118.293 302.12 115.37C302.72 114.724 303.105 113.907 303.221 113.033C303.338 112.159 303.18 111.271 302.77 110.49C302.05 108.74 300.58 108.12 298.19 108.12Z" fill="#D7261E"/>
<path d="M121.12 29.3701C121.198 32.0414 120.213 34.6345 118.382 36.5805C116.55 38.5266 114.021 39.6664 111.35 39.7501H110.9C105.97 39.7501 101.76 34.8401 101.73 29.1601C101.718 27.8127 101.972 26.4762 102.476 25.2268C102.981 23.9775 103.727 22.8398 104.671 21.8787C105.616 20.9176 106.74 20.1519 107.98 19.6254C109.221 19.0989 110.553 18.8218 111.9 18.8101H112.06C117.12 18.8401 121.12 23.5601 121.12 29.3701ZM116.95 32.9001C116.47 28.9901 115.64 25.2301 113.2 22.0501C112.784 21.4015 112.171 20.9031 111.451 20.6278C110.732 20.3526 109.943 20.3148 109.2 20.5201C108.439 20.6959 107.752 21.1077 107.239 21.6967C106.725 22.2857 106.411 23.0218 106.34 23.8001C106.025 26.1575 106.228 28.5553 106.934 30.8264C107.64 33.0975 108.833 35.1872 110.43 36.9501C112.43 39.1301 115.77 38.0801 116.6 35.2601C116.762 34.4912 116.875 33.713 116.94 32.9301L116.95 32.9001Z" fill="#D7261E"/>
<path d="M76.87 55.1801C76.87 60.5601 72.12 65.7201 67.09 65.7801C62.06 65.8401 57.5 60.8801 57.48 55.3701C57.46 49.8601 62.19 44.6301 67.3 44.5901C72.41 44.5501 76.85 49.3701 76.87 55.1801ZM60.65 51.4601C61.3383 55.5173 63.4691 59.1893 66.65 61.8001C68.1 63.1301 69.83 63.8801 71.77 62.7101C72.5844 62.2236 73.2085 61.4739 73.5393 60.5849C73.8702 59.6959 73.8881 58.7206 73.59 57.8201C72.6264 53.8989 70.3723 50.4156 67.19 47.9301C66.62 47.3964 65.8942 47.0591 65.1188 46.9673C64.3434 46.8756 63.5589 47.0342 62.88 47.4201C62.1545 47.8023 61.5568 48.3885 61.1605 49.1064C60.7642 49.8243 60.5868 50.6425 60.65 51.4601Z" fill="#D7261E"/>
<path d="M31.51 126.7C31.5515 125.619 31.2116 124.558 30.5498 123.703C29.8881 122.847 28.9466 122.251 27.89 122.02C25.04 121.1 22.32 119.74 19.54 118.58C16.76 117.42 16.63 117.37 14.85 119.52C14.51 119.25 14.66 118.95 14.77 118.63C16.35 114.15 17.94 109.63 19.49 105.19C19.81 104.27 20.14 103.82 21.19 104.38C22.44 105.04 23.78 105.54 25.35 106.23C24.82 106.5 24.65 106.66 24.49 106.66C20.92 106.66 18.86 108.48 18.4 112.07C18.32 112.72 18.62 112.91 19.06 113.07C20.66 113.76 22.27 114.4 23.86 115.07C24.77 115.48 25.04 115.07 25.14 114.26C25.1992 113.7 25.1208 113.134 24.9117 112.611C24.7026 112.088 24.369 111.625 23.94 111.26C23.42 110.78 22.58 110.65 22.2 109.35L31.6 113.27C30.6 114 29.85 113.52 29.19 113.53C28.6552 113.476 28.1162 113.573 27.6337 113.81C27.1513 114.047 26.7447 114.414 26.46 114.87C26.01 115.6 26.09 116.07 26.94 116.4C28.44 116.98 29.94 117.58 31.4 118.23C32.57 118.74 33.11 118.23 33.52 117.23C34.77 114 35.01 110.96 32.1 108.42C31.91 108.25 31.75 108.01 32.1 107.5C33.6 108.4 35.1 109.29 36.61 110.21C37.5 110.75 36.85 111.42 36.61 111.97C34.93 116.88 33.21 121.77 31.5 126.67L31.51 126.7Z" fill="#D7261E"/>
<path d="M304.48 129.96C301.16 130.7 297.84 131.48 294.48 132.17C292.48 132.59 292.62 134.23 292.03 135.73L290.7 128.92C292.04 132.01 294.33 130.92 296.48 130.44C299.01 129.82 301.54 129.15 304.1 128.68C306.36 128.27 308.32 127.74 307.75 124.29C309.91 127.7 309.85 131.61 307.97 134.09C305.657 137.052 303.511 140.14 301.54 143.34C304.05 142.74 306.54 142.12 309.07 141.53C310.83 141.11 310.43 139.53 310.6 138.22L311.1 138.28L312.44 145.08C311.15 144.38 311.31 142.67 309.93 142.84C308.938 142.973 307.953 143.157 306.98 143.39C303.2 144.25 299.42 145.14 295.64 146.01C294.952 146.32 294.169 146.349 293.46 146.09C297.32 140.81 301.12 135.6 304.93 130.4C304.99 130.24 305.15 130 305.1 129.94C304.94 129.72 304.7 129.82 304.48 129.96Z" fill="#D7261E"/>
<path d="M134.44 13.1701L140.44 12.1201C137.44 13.7101 138.7 16.2201 138.96 18.4501C139.27 21.2401 139.76 24.0101 139.96 26.8001C140.27 30.8001 137.91 33.2501 133.43 33.8701C129.63 34.4001 127.19 32.7101 126.43 28.7501C125.78 25.3401 125.37 21.8801 124.86 18.4501C124.63 16.9401 124.58 15.2601 121.8 16.2301L122.18 15.3101L131.31 13.6901L131.85 14.2001C128.36 14.6201 129.22 16.7901 129.49 18.7001C129.96 21.9401 130.41 25.1901 130.95 28.4201C131.4 31.0601 132.42 32.0301 134.46 31.9601C135.539 31.966 136.577 31.5517 137.356 30.8051C138.134 30.0584 138.591 29.038 138.63 27.9601C138.679 26.9579 138.632 25.9534 138.49 24.9601C138.19 22.5701 137.79 20.2001 137.49 17.8101C137.23 15.7501 137.23 13.5501 134 13.7101L134.44 13.1701Z" fill="#D7261E"/>
<path d="M265.37 53.1201C266.95 53.6201 271.01 57.6301 271.89 59.3101C269.4 58.2001 269.38 58.1901 267.36 60.5501C265.34 62.9101 263.08 65.5501 261.04 68.0701C260.402 68.8504 260.074 69.8389 260.12 70.8461C260.165 71.8532 260.582 72.8079 261.288 73.5269C261.995 74.246 262.942 74.6787 263.948 74.742C264.955 74.8054 265.949 74.4949 266.74 73.8701C266.86 73.7599 266.971 73.6394 267.07 73.5101C269.59 70.8501 271.91 67.9901 274.31 65.2101C275.4 63.9401 274.75 62.7801 274.01 61.7001L278.01 65.8201C276.61 64.6701 275.41 66.0301 274.14 67.5401C272.14 69.9401 270.08 72.3401 267.89 74.5401C265.7 76.7401 263.42 76.7701 261 75.1301C259.667 74.2254 258.539 73.0499 257.69 71.6801C256.06 69.0901 256.23 66.5901 258.38 63.9101C260.53 61.2301 262.86 58.5901 265.11 55.9101C265.81 55.1201 266.34 54.2501 265.37 53.1201Z" fill="#D7261E"/>
<path d="M223.31 23.4999L221.46 29.7899C220.46 29.0899 220.92 28.2899 220.87 27.6299C220.874 26.6547 220.622 25.6956 220.139 24.8482C219.657 24.0007 218.96 23.2945 218.12 22.7999C217.627 22.4355 217.021 22.2576 216.41 22.2979C215.798 22.3382 215.221 22.594 214.78 23.0199C214.335 23.4272 214.068 23.9929 214.036 24.5952C214.004 25.1974 214.211 25.7881 214.61 26.2399C216.17 28.3199 217.94 30.2399 219.37 32.4199C220.281 33.6625 220.661 35.216 220.426 36.7388C220.192 38.2615 219.362 39.6288 218.12 40.5399C217.928 40.6794 217.728 40.8064 217.52 40.9199C216.363 41.5417 215.038 41.7799 213.737 41.6002C212.436 41.4205 211.225 40.8321 210.28 39.9199C209.13 38.9199 208.12 37.9199 206.13 39.3199C207.03 36.4699 207.76 34.1399 208.5 31.8199L209.09 31.8999V34.1699C209.26 36.6199 210.09 38.7599 212.43 39.9099C212.982 40.247 213.632 40.3842 214.273 40.2986C214.914 40.213 215.506 39.9099 215.95 39.4399C216.358 38.9879 216.607 38.4143 216.658 37.8072C216.708 37.2002 216.558 36.5933 216.23 36.0799C215.513 34.8734 214.661 33.7528 213.69 32.7399C212.862 31.7931 212.101 30.7908 211.41 29.7399C209.62 26.6699 210.27 24.1599 213.3 21.8099C215.2 20.3399 217.94 20.7599 220.16 22.8799C221 23.5999 221.7 24.9199 223.31 23.4999Z" fill="#D7261E"/>
<path d="M22.4 98.4799L26.71 90.3699C26.86 92.7999 26.86 92.8199 29.41 92.8699H36.12C34.73 90.2499 33.52 87.6599 32.03 85.2399C30.96 83.5099 30.42 85.7199 29.03 85.9199L31.92 80.4399C32.21 84.3699 34.79 87.0999 36.12 90.3699C37.62 93.9699 40.51 95.5899 44.35 96.3699C43.208 98.9208 41.8915 101.39 40.41 103.76C40.3975 102.224 39.8019 100.749 38.7437 99.6354C37.6855 98.5215 36.2437 97.8512 34.71 97.7599C31.97 97.6699 29.22 97.6399 26.48 97.6199C25.09 97.6199 23.62 97.3699 22.73 99.0899L22.4 98.4799Z" fill="#D7261E"/>
<path d="M184.34 18.31C184.276 17.9366 184.243 17.5587 184.24 17.18C184.92 12.33 184.92 12.34 189.66 13.38C193.05 14.12 196.45 14.88 199.86 15.54C200.86 15.75 201.19 16.16 200.95 17.17C200.64 18.45 200.44 19.77 200.18 21.17C199.27 20.87 199.51 20.17 199.42 19.67C199.385 19.1009 199.228 18.546 198.961 18.0424C198.693 17.5388 198.322 17.0981 197.87 16.75C195.98 15.5 195.11 15.86 194.72 18.06C194 22.06 193.34 26.06 192.54 30.06C192.17 31.94 192.07 33.53 194.54 34.06L194.23 34.57L185.01 32.64C188.24 32.64 187.88 30.16 188.23 28.29C188.897 24.61 189.563 20.9233 190.23 17.23C190.35 16.47 191.23 15.42 190.1 14.91C189.508 14.5824 188.828 14.4477 188.156 14.5248C187.484 14.6019 186.853 14.8869 186.35 15.34C185.56 16.06 185.3 17.12 184.34 18.31Z" fill="#D7261E"/>
<path d="M78.91 34.1201L86.56 29.8701C84.56 31.8701 86.24 32.6701 87.49 33.6001L93.11 37.8001C93.28 34.5601 93.5 31.7301 93.56 28.8901C93.56 27.0301 92.06 27.8201 90.98 27.8001C92.5782 26.4686 94.3641 25.3802 96.28 24.5701C94.19 28.3301 94.93 32.1201 94.45 35.7501C93.93 39.7501 95.82 42.6201 98.28 45.5701C96.37 46.5701 94.39 48.0901 91.79 48.6701C93.13 47.5701 92.79 46.4501 92.26 45.1501C91.4092 42.7472 89.7703 40.703 87.61 39.3501C85.81 38.2101 84.17 36.8201 82.42 35.5701C81.42 34.8801 80.42 34.1701 79.05 34.7101L78.91 34.1201Z" fill="#D7261E"/>
<path d="M61.95 73.3701L55.33 80.6001L54.76 80.3701C56.64 78.5101 55.7 77.1801 54.33 75.7501C51.5033 72.8101 48.7467 69.8101 46.06 66.7501C45.14 65.6901 44.72 65.9801 43.95 66.8601C42.22 68.8601 43.02 70.8601 44.18 73.3301C42.25 72.1601 41.41 70.7201 40.3 69.6001C39.86 69.1501 40.54 68.7901 40.83 68.4801C44.12 64.8601 47.45 61.2901 50.71 57.6501C51.39 56.8901 51.83 56.8901 52.42 57.6501C53.21 58.6501 54.35 59.4201 54.87 60.7201C54.07 61.0101 53.66 60.4201 53.14 60.2101C52.3297 59.8573 51.4172 59.8186 50.5799 60.1014C49.7427 60.3842 49.0405 60.9683 48.61 61.7401C48.23 62.3301 48.53 62.5801 48.84 62.9201C52.04 66.4201 55.26 69.9201 58.46 73.4401C59.68 74.7901 60.68 73.7901 61.69 72.7801L61.95 73.3701Z" fill="#D7261E"/>
<path d="M277.87 73.3701C278.99 72.4701 280.11 71.5801 281.2 70.6501C281.83 70.1101 282.12 70.5001 282.44 70.9901C285.247 75.2234 288.063 79.4467 290.89 83.6601C291.29 84.2601 291.4 84.6601 290.74 85.1601C289.64 85.9801 288.58 86.8701 287.47 87.7501C286.86 86.8301 287.6 86.4801 287.87 86.0501C288.193 85.5808 288.417 85.0506 288.529 84.4919C288.641 83.9332 288.638 83.3576 288.52 82.8001C287.95 80.3701 287.03 80.0601 285.14 81.5601C282.37 83.7701 279.58 85.9601 276.82 88.1701C274.31 90.1701 274.32 90.1701 274.74 93.1701L269.44 85.2901C271.77 86.6001 272.93 85.2901 274.2 84.2301C276.98 82.0201 279.78 79.8501 282.5 77.5901C283.12 77.0801 284.5 76.8201 283.97 75.5901C283.31 74.1801 282.27 72.9401 280.42 73.1801C279.656 73.3286 278.901 73.5223 278.16 73.7601L277.87 73.3701Z" fill="#D7261E"/>
<path d="M248.73 38.6699L256.92 44.9599C255.42 45.1299 254.65 43.6299 253.71 44.4999C253.007 45.2125 252.399 46.0124 251.9 46.8799C249.9 50.0199 247.9 53.2099 245.9 56.3299C245.03 57.6399 245.11 58.5199 246.39 59.5399C249.77 62.2299 251.02 62.3099 254.52 59.7299C254.77 59.5399 254.96 59.1999 255.78 59.5599C254.4 61.2799 253.09 62.9399 251.78 64.5599C251.49 64.9199 251.18 64.7099 250.91 64.4999C246.74 61.3099 242.58 58.1099 238.18 54.7299C239.43 54.3799 240.24 55.7299 241.07 54.9099C241.702 54.2261 242.262 53.4788 242.74 52.6799C244.627 49.7666 246.503 46.8433 248.37 43.9099C249.99 41.2799 249.98 41.2699 248.73 38.6699Z" fill="#D7261E"/>
<path d="M293.48 88.02C295.04 90.96 296.59 93.89 298.36 97.25C296.96 96.77 296.81 95.15 295.61 95.57C294.69 95.9507 293.809 96.4196 292.98 96.97C290.32 98.63 287.68 100.33 284.98 101.97C283.27 103.04 281.2 103.89 283.17 106.8L282.41 106.7L278.62 99.7C283.74 97.58 288.06 94.14 292.72 91.3C294.14 90.44 293.05 89.17 292.96 88.06L293.48 88.02Z" fill="#D7261E"/>
<path d="M180.04 31.9601L170.73 30.9101L170.37 30.3601C173.89 30.6001 173.43 28.2201 173.63 26.2701C174.003 22.4701 174.377 18.6734 174.75 14.8801C174.88 13.6101 175.08 12.2801 173.23 11.8201C175.979 11.4041 178.787 11.6685 181.41 12.5901C180.787 12.6724 180.218 12.9871 179.818 13.4711C179.417 13.9552 179.214 14.5728 179.25 15.2001C178.87 19.4001 178.44 23.5901 178.04 27.7901C177.79 30.5201 177.8 30.5201 180.04 31.9601Z" fill="#D7261E"/>
<path d="M75.79 264.26C75.6091 264.132 75.4046 264.041 75.1882 263.992C74.9719 263.943 74.7481 263.937 74.5296 263.976C74.3111 264.014 74.1024 264.095 73.9154 264.214C73.7283 264.333 73.5668 264.488 73.44 264.67L73.35 264.81C70.5367 268.39 67.7033 271.947 64.85 275.48C63.76 276.82 64.19 277.91 65.55 278.97L64.91 279.3L57.91 272.68C60.55 274.41 61.49 272.25 62.7 270.74C65.45 267.27 65.39 267.34 62.24 264.22C61.03 263.02 60.33 262.93 59.44 264.43C58.9176 265.208 58.3394 265.946 57.71 266.64C55.79 269.03 55.79 269.03 56.87 271.69L49.87 265.02C52.5 266.79 53.45 264.58 54.63 263.11C57.02 260.11 59.35 257.11 61.73 254.11C62.45 253.21 62.92 252.34 62.19 251.11C64.6 252.37 66.32 254.37 68.12 256.22L67.77 256.62C67.18 256.29 66.49 255.89 65.94 256.52C64.57 258.06 63.29 259.68 61.94 261.28C61.8398 261.381 61.7837 261.518 61.7837 261.66C61.7837 261.802 61.8398 261.939 61.94 262.04C61.9655 262.078 61.9998 262.109 62.04 262.13C62.14 262.22 62.23 262.32 62.33 262.4C63.7 263.54 65.17 266.13 66.22 265.74C68.1 265.04 69.22 262.66 70.42 260.86C70.89 260.18 70.42 259.5 70.31 258.73C72.4886 260.156 74.4576 261.88 76.16 263.85L75.79 264.26Z" fill="#FDFDFD"/>
<path d="M20.01 219.12C20.11 211.52 27.01 206.53 33.01 209.06C36.58 210.57 39.41 215.51 39.23 219.95C39.1452 222.007 38.4273 223.988 37.1744 225.622C35.9216 227.256 34.1948 228.464 32.23 229.08C30.5752 229.654 28.783 229.702 27.0998 229.217C25.4166 228.732 23.925 227.737 22.83 226.37C21.1342 224.32 20.1452 221.777 20.01 219.12ZM26.65 225.37C30.5907 224.767 34.1604 222.704 36.65 219.59C37.1417 218.989 37.4614 218.266 37.5752 217.497C37.689 216.729 37.5925 215.944 37.2962 215.227C36.9998 214.509 36.5145 213.885 35.8919 213.42C35.2693 212.956 34.5326 212.669 33.76 212.59C30.24 212.19 23.54 216.06 22.13 219.32C20.88 222.32 22.87 225.39 26.65 225.39V225.37Z" fill="#FDFDFD"/>
<path d="M305.19 181.54C304.61 183.98 306.19 184.54 307.83 184.74C310.15 185.02 310.9 186.19 310.77 188.48C310.723 190.822 310.387 193.15 309.77 195.41C308.32 199.98 304.34 203 300.33 202.61C298.017 202.352 295.864 201.304 294.236 199.642C292.607 197.981 291.601 195.807 291.39 193.49C291.001 190.539 291.679 187.546 293.3 185.05C294.17 183.72 294.84 182.54 293.59 180.91L299.99 182.65C299.25 183.51 298.46 183.42 297.82 183.65C296.529 184.026 295.377 184.77 294.503 185.792C293.629 186.813 293.072 188.067 292.9 189.4C292.57 192.28 293.63 194.21 296.46 195.74C298.903 197.171 301.729 197.81 304.55 197.57C305.292 197.451 306.003 197.187 306.642 196.792C307.282 196.398 307.837 195.881 308.276 195.272C308.716 194.662 309.031 193.972 309.203 193.241C309.375 192.509 309.401 191.751 309.28 191.01C309.242 190.758 309.125 190.525 308.945 190.345C308.765 190.165 308.532 190.048 308.28 190.01C307.362 189.818 306.457 189.571 305.57 189.27C303.81 188.58 303.57 190.21 302.49 190.94L304.57 181.77L305.19 181.54Z" fill="#FDFDFD"/>
<path d="M302.85 217.98L284.04 222.79C288.04 224.85 291.51 226.79 295.04 228.46C296.46 229.15 297.04 227.53 298.16 227.01L295.41 233.25C294.66 233.01 294.94 232.57 295.03 232.25C295.46 230.75 294.77 229.85 293.49 229.19C290.34 227.54 287.22 225.86 284.09 224.19C281.68 222.9 281.41 222.93 279.09 224.67C279.82 223.266 280.442 221.809 280.95 220.31C281.48 218.31 282.95 218.05 284.52 217.68C288.03 216.88 291.52 215.98 295.66 214.96C292.66 213.43 290.26 212.12 287.77 210.96C286.77 210.5 286.49 210.78 284.64 212.15L287.22 206.37L288 206.2C286.58 209.32 288.85 209.93 290.56 210.86C294.08 212.78 297.64 214.63 301.18 216.54C301.75 216.87 302.48 216.97 302.85 217.98Z" fill="#FDFDFD"/>
<path d="M243.12 265.12C243.4 263.98 244.21 263.7 244.82 263.23C246.7 261.8 246.55 261.88 247.34 264.01C248.067 265.588 248.923 267.103 249.9 268.54C251.11 270.62 252.51 272.61 253.5 274.79C255.57 279.3 250.89 285.6 245.93 285.14C245.061 285.031 244.23 284.716 243.508 284.22C242.786 283.724 242.194 283.062 241.78 282.29C240 279.46 238.25 276.61 236.5 273.76C235.67 272.42 234.88 271.06 232.89 272.88L232.79 272.14L239.65 267.05L240.17 267.27C238.67 268.68 239.45 269.88 240.17 271.06C241.97 273.96 243.76 276.87 245.61 279.74C247.09 282.04 248.22 282.51 249.98 281.74C251.004 281.302 251.837 280.511 252.327 279.511C252.817 278.51 252.931 277.368 252.65 276.29C252.201 274.871 251.551 273.524 250.72 272.29C249.48 270.29 248.24 268.29 247.03 266.29C246.12 264.87 245.12 263.64 243.12 265.12Z" fill="#FDFDFD"/>
<path d="M17.3301 200.92C17.0395 201.21 16.6457 201.373 16.2351 201.373C15.8245 201.373 15.4307 201.21 15.1401 200.92C10.4201 197.59 9.52006 188.98 13.4901 184.74C15.9801 182.08 19.0401 180.99 22.6001 182.03C26.5501 183.18 28.8301 186.03 29.8001 189.94C30.1546 191.513 30.2055 193.138 29.9501 194.73C29.7701 195.99 29.9501 197 31.6401 197.15L31.5101 197.67L25.3301 199.35C25.4601 198.15 26.3301 197.98 26.8001 197.5C27.7498 196.593 28.4103 195.426 28.6985 194.145C28.9868 192.864 28.8899 191.526 28.4201 190.3C27.4801 187.91 25.4201 186.69 22.5101 186.7C20.6969 186.732 18.9111 187.148 17.2701 187.92C11.6801 190.37 11.1201 196.37 16.0601 199.97C16.4701 200.26 16.8801 200.57 17.3301 200.92Z" fill="#FDFDFD"/>
<path d="M45.12 253.98C44.9739 254.339 44.707 254.635 44.3655 254.818C44.024 255 43.6294 255.058 43.25 254.98C39.78 254.55 36.25 250.79 35.25 246.35C34.8064 244.343 34.9818 242.249 35.7531 240.344C36.5244 238.439 37.8552 236.813 39.57 235.68C41.1452 234.635 43.0068 234.108 44.8959 234.17C46.785 234.233 48.6076 234.883 50.11 236.03C52.1489 237.583 53.5927 239.79 54.2 242.28C54.55 243.54 54.78 244.84 56.77 244.69L51.77 248.92C51.39 247.87 52.06 247.43 52.31 246.87C52.9333 245.639 53.1612 244.245 52.9625 242.879C52.7638 241.514 52.1483 240.243 51.2 239.24C49.28 237.43 46.54 237.32 43.77 239.01C41.9389 240.123 40.378 241.63 39.2 243.42C36.4 247.7 38.4 252.54 43.4 253.6L45.12 253.98Z" fill="#FDFDFD"/>
<path d="M268.84 267.12C269.65 265.92 269.33 264.91 268.42 263.89C265.42 260.56 262.42 257.22 259.54 253.82C258.77 252.92 258.37 253.13 257.72 253.89C256.34 255.52 256.27 256.05 257.29 260.23C255.75 259.28 254.94 257.88 253.91 256.74C253.45 256.25 254.13 255.94 254.41 255.64C257.76 252.09 261.13 248.57 264.41 245.01C265.02 244.35 265.41 244.01 266.06 245.01C266.885 246.094 267.777 247.126 268.73 248.1C267.73 248.56 267.33 247.84 266.78 247.62C265.973 247.273 265.067 247.233 264.233 247.507C263.399 247.782 262.693 248.352 262.25 249.11C261.81 249.8 262.25 250.11 262.6 250.45C265.6 253.86 268.67 257.21 271.6 260.68C272.87 262.19 273.94 261.52 275.16 260.56L275.41 261.05C273.31 263.21 271.217 265.377 269.13 267.55L268.84 267.12Z" fill="#FDFDFD"/>
<path d="M289.12 242.71L284.38 250.12L283.75 250.03C285.52 247.62 284.01 246.49 282.36 245.29C279.55 243.29 276.82 241.09 274.05 238.98C272.95 238.14 271.93 236.98 270.17 237.69L274.9 230.39H275.65C273.55 232.96 275.32 234.03 276.92 235.23C279.81 237.39 282.65 239.63 285.53 241.8C286.53 242.55 287.53 243.67 289.01 241.88L289.12 242.71Z" fill="#FDFDFD"/>
<path d="M68.12 256.26C68.44 256.43 68.93 256.66 68.62 257.02C68.31 257.38 68.01 256.91 67.77 256.66L68.12 256.26Z" fill="#FDFDFD"/>
<path d="M76.12 263.89C76.44 264.08 77 264.29 76.66 264.68C76.32 265.07 76.04 264.5 75.78 264.26L76.12 263.89Z" fill="#FDFDFD"/>
<path d="M269.19 267.52C269 267.72 268.84 268.16 268.52 267.81C268.2 267.46 268.59 267.29 268.86 267.14L269.19 267.52Z" fill="#FDFDFD"/>
<path d="M166.52 148.28C166.302 146.418 165.968 144.571 165.52 142.75C164.514 139.472 164.826 135.931 166.39 132.88C167.491 130.369 168.459 127.802 169.29 125.19C169.68 124.06 170.06 123.49 171.35 124.28C172.64 125.07 173.92 125.42 175.13 126.11C176.34 126.8 176.65 126.35 176.79 125.11C177.31 120.72 177.99 116.35 178.43 111.96C178.41 111.34 178.63 110.737 179.043 110.275C179.457 109.813 180.032 109.529 180.65 109.48C184.87 108.48 189.05 107.24 193.27 106.2C193.791 106.119 194.277 105.886 194.667 105.531C195.056 105.175 195.332 104.712 195.46 104.2C197.46 98.6 199.59 93.04 201.61 87.45C201.736 86.9789 201.99 86.5515 202.342 86.2146C202.695 85.8778 203.134 85.6444 203.61 85.54C207.75 84.45 211.87 83.28 215.98 82.09C216.873 81.8203 217.827 81.8203 218.72 82.09C224.27 83.61 229.83 85.09 235.37 86.62C236.62 86.98 237.37 86.76 237.88 85.62C238.417 84.5458 239.012 83.501 239.66 82.49C241.12 79.95 241.13 79.95 243.12 81.96C258.98 97.96 270.31 116.46 275.12 138.66C276.377 144.863 277.133 151.156 277.38 157.48C278.371 173.216 275.96 188.98 270.31 203.7C259.9 230.26 241.46 249.91 216.87 263.83C195 276.21 171.25 279.83 146.46 277.39C120.79 274.9 98.64 264.52 79.72 247.12C55.55 224.86 42.72 197.45 42.27 164.45C42.27 162.81 42.53 162.27 44.27 162.45C48.88 162.86 49.1 162.8 48.6 167.38C48.2812 170.622 48.9803 173.883 50.6 176.71C54.96 185.15 59.1 193.71 63.33 202.19C64.53 204.62 65.14 204.89 68.04 204.3C68.5 207.3 70.67 208.74 73.04 210.06C74.66 210.97 76.53 211.35 78.04 212.5C77.0424 213.289 76.1722 214.226 75.46 215.28C77.27 216.11 78.98 216.86 80.67 217.66C80.9221 217.817 81.2131 217.9 81.51 217.9C81.8069 217.9 82.0979 217.817 82.35 217.66C87.7023 214.536 92.6811 210.812 97.19 206.56L86.47 203.91C86.59 201.5 87.06 201.12 89.15 201.8C90.15 202.14 91.15 202.5 92.15 202.8C93.99 203.41 96.08 204.8 97.6 204.4C99.12 204 99.74 201.23 100.66 199.48C100.785 199.053 101.075 198.694 101.464 198.48C101.854 198.267 102.313 198.216 102.74 198.34C102.903 198.387 103.058 198.458 103.2 198.55C105.2 199.35 107.2 200 109.2 200.78C109.323 200.885 109.466 200.964 109.619 201.013C109.773 201.062 109.935 201.081 110.096 201.067C110.257 201.053 110.414 201.007 110.557 200.932C110.7 200.857 110.827 200.754 110.93 200.63C111.059 200.485 111.149 200.309 111.19 200.12C112.26 197.9 113.49 195.75 114.55 193.52C114.596 193.341 114.678 193.173 114.79 193.025C114.902 192.878 115.042 192.754 115.201 192.661C115.361 192.568 115.538 192.508 115.722 192.484C115.905 192.459 116.091 192.472 116.27 192.52C116.367 192.546 116.461 192.583 116.55 192.63C118.12 193.16 119.77 193.5 121.36 193.98C122.25 194.24 122.65 193.98 122.99 193.13C123.99 190.64 125.08 188.22 125.99 185.72C126.41 184.59 126.99 184.31 128.09 184.72C130.62 185.57 133.17 186.36 135.71 187.2C139.63 188.5 139.71 188.54 141.71 184.85C142.46 183.46 143.25 183.28 144.6 183.85C146.9 184.9 149.25 185.85 151.6 186.79C152.48 188 153.8 188.44 155.35 189.13C154.93 187.33 154.58 185.85 154.23 184.37C155.23 180.88 155.74 180.59 159.14 181.51C160.14 181.77 161.01 182.24 161.98 182.51C163.66 182.88 165.21 184.51 166.82 183.94C169.125 183.289 171.277 182.184 173.15 180.69C176 178.16 177.55 178.54 179.06 181.93C179.544 183.258 180.419 184.409 181.57 185.23C184.65 187.15 188.05 185.46 189.15 181.47C189.82 179.03 193.15 177.58 195 179.16C198.1 181.69 201.471 183.87 205.05 185.66L201.65 187.92C204.44 188.19 206.65 188.36 208.77 188.61C209.77 188.72 210.15 188.37 210.1 187.42C210.55 187.51 211.01 187.57 211.47 187.68C216.351 188.936 221.437 189.178 226.415 188.39C231.393 187.602 236.156 185.802 240.41 183.1C249.114 177.815 255.432 169.365 258.041 159.522C260.649 149.679 259.345 139.209 254.401 130.307C249.457 121.405 241.258 114.764 231.524 111.776C221.79 108.788 211.277 109.685 202.19 114.28C201.4 114.66 200.81 115.61 199.74 115.28C201.17 113.89 199.65 112.89 198.95 112.45C197.88 111.78 196.08 110.85 195.16 112.07C193.29 114.782 191.567 117.593 190 120.49L193.18 120.18C192.186 121.95 190.792 123.463 189.11 124.6C188.04 123.6 187.92 124.93 187.64 125.31C182.37 132.55 178.92 140.68 176.07 149.1C175.22 149.42 174.92 148.79 174.5 148.24C174.165 147.746 173.737 147.323 173.238 146.994C172.74 146.666 172.182 146.439 171.596 146.327C171.01 146.214 170.407 146.219 169.823 146.339C169.239 146.46 168.684 146.695 168.19 147.03L167.79 147.34C167.41 147.72 167.12 148.18 166.52 148.28ZM205.77 198.65L200.65 212.21C198.65 210.56 196.65 209.21 194.94 207.52C192.88 205.43 191.15 205.07 188.3 206.52C180.3 210.52 171.63 211.1 162.84 210.36C161.95 210.29 161.1 209.97 160.3 210.93C156.3 215.77 152.9 220.93 151.04 226.93C150.824 227.515 150.747 228.143 150.817 228.762C150.886 229.382 151.1 229.977 151.44 230.5C153.97 234.78 155.99 239.3 156.25 244.37C156.31 245.62 156.91 245.54 157.78 245.5C163.39 245.19 169.01 244.93 174.62 244.6C175.885 244.514 177.152 244.727 178.32 245.22C183.86 247.55 189.51 249.66 194.95 252.22C197.86 253.58 200.67 253.09 203.57 252.97C203.868 252.926 204.153 252.821 204.41 252.663C204.666 252.505 204.887 252.296 205.06 252.05C208.21 248.943 211.118 245.6 213.76 242.05C217.156 237.715 219.658 232.749 221.12 227.44C221.278 226.942 221.3 226.41 221.184 225.9C221.068 225.391 220.818 224.921 220.46 224.54C217.437 220.971 214.724 217.15 212.35 213.12C209.637 208.551 207.43 203.698 205.77 198.65ZM248.95 215.6C246.278 218.919 244.133 222.629 242.59 226.6C242.32 227.482 241.833 228.282 241.172 228.925C240.511 229.568 239.699 230.034 238.81 230.28C233.39 231.83 229.73 235.41 227.24 240.34C226.45 241.89 225.56 243.39 224.84 244.96C224.53 245.64 223.7 246.27 224.22 247.14C225.02 248.45 225.88 249.72 226.77 250.97C227.04 251.35 227.37 250.97 227.61 250.77C229.28 249.56 231 248.49 231.67 246.27C232.24 244.36 233.27 242.6 234.02 240.74C234.442 239.688 235.197 238.803 236.17 238.22C240.59 235.33 244.78 232.03 249.42 229.55C254.06 227.07 254.69 222.62 256.57 218.65C255.535 219.133 254.575 219.763 253.72 220.52C252.86 221.28 252.44 221.03 251.91 220.15C251.02 218.62 250.02 217.21 248.91 215.6H248.95ZM178.58 191.45L188.58 197.08L188.06 188.53L178.58 191.45ZM198.86 261.74C201.41 261.89 203.51 261.93 205.6 262.18C206.107 262.288 206.634 262.239 207.112 262.041C207.591 261.843 207.998 261.504 208.28 261.07C210.12 258.61 210.19 258.61 207.38 257.45C206.54 257.1 205.74 256.07 204.67 256.95L198.86 261.74ZM169.38 198.12C170.52 196.52 171.49 195.17 172.44 193.81C172.71 193.42 173.34 192.96 172.44 192.62C169.44 191.53 166.38 190.46 162.8 189.19C165.19 192.44 167.19 195.2 169.38 198.12ZM218.04 195.12L214.79 202C219.52 201.21 219.79 200.88 218.52 196.64C218.41 196.24 218.28 195.87 218.04 195.12ZM145.04 193.25C149.5 196.48 150.47 196.41 152.81 192.81L145.04 193.25Z" fill="#FDFDFD"/>
<path d="M78.05 212.45C76.56 211.3 74.69 210.92 73.05 210.01C70.68 208.69 68.51 207.22 68.05 204.25C68.1881 201.838 68.9235 199.498 70.19 197.44C70.87 196.14 72.6201 196.44 73.4901 195.33C74.3701 195.8 75.0301 195.09 75.7001 194.8C92.8201 187.32 109.927 179.813 127.02 172.28C127.58 172.03 128.39 172.04 128.54 171.19C132.95 169.84 137.02 167.67 141.24 165.87C149.15 162.49 156.99 158.94 164.9 155.54C166.29 154.94 166.9 154.42 166.15 152.81C165.767 152.096 165.602 151.284 165.677 150.477C165.751 149.67 166.062 148.902 166.57 148.27C167.14 148.18 167.46 147.72 167.88 147.4C168.333 147.011 168.857 146.716 169.424 146.531C169.991 146.346 170.589 146.274 171.184 146.321C171.779 146.367 172.358 146.531 172.889 146.802C173.421 147.073 173.893 147.446 174.28 147.9C174.391 148.027 174.495 148.161 174.59 148.3C175.01 148.85 175.31 149.48 176.16 149.16C179.51 149.02 180.51 148.23 181.33 145.05C181.431 144.594 181.508 144.134 181.56 143.67C182.57 136.822 185.188 130.311 189.2 124.67C190.882 123.533 192.276 122.02 193.27 120.25C193.64 119.95 194.02 119.66 194.4 119.37C194.543 119.389 194.689 119.355 194.809 119.274C194.929 119.193 195.015 119.07 195.05 118.93H195C195.053 118.936 195.106 118.931 195.156 118.915C195.207 118.9 195.254 118.875 195.295 118.842C195.336 118.808 195.37 118.767 195.395 118.72C195.42 118.674 195.435 118.623 195.44 118.57V118.49C196.05 118.57 196.26 118.22 196.3 117.69C196.61 117.61 197.07 117.81 197.1 117.24C197.37 117.24 197.56 117.11 197.54 116.8C197.94 116.88 198.29 116.86 198.39 116.36H198.34C198.63 116.36 198.84 116.28 198.79 115.92C199.44 115.99 200.05 115.99 200.04 115.08C201.11 115.37 201.7 114.42 202.49 114.08C211.539 109.758 221.896 109.05 231.449 112.101C241.002 115.152 249.032 121.731 253.901 130.498C258.77 139.265 260.113 149.559 257.654 159.281C255.196 169.003 249.121 177.422 240.67 182.82C236.416 185.522 231.652 187.321 226.673 188.103C221.694 188.886 216.608 188.637 211.73 187.37C211.27 187.26 210.81 187.2 210.36 187.11L205.36 185.35C201.781 183.56 198.41 181.38 195.31 178.85C193.49 177.27 190.13 178.72 189.46 181.16C188.36 185.16 184.96 186.84 181.88 184.92C180.729 184.099 179.854 182.948 179.37 181.62C177.86 178.23 176.31 177.85 173.46 180.38C171.587 181.874 169.435 182.979 167.13 183.63C165.52 184.18 163.97 182.57 162.29 182.2C161.29 181.98 160.41 181.51 159.45 181.2C156.05 180.28 155.56 180.57 154.54 184.06C153.6 184.79 153.89 186.87 151.91 186.48C149.58 185.48 147.23 184.59 144.91 183.54C143.56 182.93 142.77 183.11 142.02 184.54C140.02 188.23 139.96 188.19 136.02 186.89C133.48 186.05 130.93 185.26 128.4 184.41C128.201 184.298 127.979 184.235 127.751 184.227C127.523 184.219 127.296 184.266 127.09 184.364C126.884 184.462 126.704 184.608 126.567 184.79C126.429 184.972 126.338 185.185 126.3 185.41C125.3 187.91 124.21 190.33 123.3 192.82C122.96 193.71 122.56 193.93 121.67 193.67C120.08 193.19 118.43 192.85 116.86 192.32C116.697 192.235 116.519 192.182 116.336 192.166C116.153 192.149 115.968 192.169 115.793 192.224C115.617 192.278 115.454 192.367 115.313 192.485C115.172 192.603 115.055 192.747 114.97 192.91C114.923 192.999 114.886 193.093 114.86 193.19C113.8 195.42 112.57 197.57 111.5 199.79C111.461 199.947 111.392 200.095 111.296 200.225C111.201 200.355 111.08 200.465 110.942 200.549C110.803 200.633 110.65 200.688 110.49 200.712C110.33 200.736 110.167 200.729 110.01 200.69C109.87 200.659 109.738 200.601 109.62 200.52C107.62 199.74 105.62 199.09 103.62 198.29C103.248 198.046 102.795 197.958 102.358 198.046C101.922 198.134 101.538 198.391 101.29 198.76C101.2 198.903 101.129 199.058 101.08 199.22C100.16 200.97 99.6801 203.63 98.0201 204.14C96.3601 204.65 94.41 203.14 92.57 202.54C91.57 202.2 90.57 201.84 89.57 201.54C87.48 200.86 87.01 201.24 86.89 203.65C85.7687 205.547 84.8535 207.558 84.16 209.65C82.05 213.93 82.12 213.94 78.05 212.45ZM183.71 155.52C183.29 155.409 182.853 155.372 182.42 155.41C177.72 156.71 172.88 157.6 168.36 159.46C161.25 162.39 154.26 165.6 147.21 168.69L86.37 195.37C81.37 197.55 76.47 199.78 71.5 201.93C69.98 202.58 69.43 203.54 70.05 205.08C70.73 206.77 71.6601 206.98 73.8101 206.08C103.19 193.3 132.54 180.44 161.97 167.79C169.147 164.67 176.068 160.992 182.67 156.79C183.12 156.5 183.69 156.37 183.71 155.52ZM252.64 149.76C252.672 145.42 251.848 141.116 250.216 137.094C248.585 133.072 246.177 129.411 243.13 126.32C240.083 123.228 236.457 120.767 232.46 119.077C228.462 117.387 224.17 116.501 219.83 116.47H219.4C201.53 116.47 186.8 131.62 186.84 149.88C186.848 154.201 187.707 158.477 189.367 162.466C191.028 166.454 193.458 170.077 196.519 173.126C202.7 179.285 211.074 182.736 219.8 182.72C224.121 182.712 228.397 181.853 232.386 180.193C236.374 178.532 239.997 176.102 243.046 173.041C246.096 169.981 248.513 166.35 250.159 162.355C251.805 158.36 252.648 154.081 252.64 149.76ZM188.96 166.93C188.542 166.772 188.096 166.7 187.649 166.719C187.202 166.738 186.764 166.847 186.36 167.04C181.42 168.24 176.29 168.97 171.6 170.8C162.88 174.2 154.42 178.24 145.87 182.04C145.38 182.26 144.65 182.31 144.59 183.29C145.9 183.84 147.24 184.43 148.59 184.98C152.26 186.49 152.26 186.49 154 182.98C155.49 179.98 155.77 179.66 158.92 180.77C160.042 181.201 161.248 181.37 162.446 181.264C163.643 181.158 164.801 180.781 165.83 180.16C169.91 178.02 174.34 176.62 178.18 173.97C181.62 171.61 185.18 169.4 188.96 166.97V166.93Z" fill="#BF9F62"/>
<path d="M128.49 171.19C128.34 172.04 127.49 172.03 126.97 172.28C109.87 179.807 92.7633 187.313 75.65 194.8C74.98 195.09 74.32 195.8 73.44 195.33C73.45 195.264 73.45 195.196 73.44 195.13C72.62 188.92 75.44 184.55 79.91 180.48C85.3905 175.357 90.4099 169.762 94.91 163.76C95.0187 163.55 95.1679 163.363 95.349 163.21C95.5301 163.058 95.7395 162.942 95.9652 162.871C96.1909 162.799 96.4286 162.773 96.6645 162.793C96.9004 162.814 97.1299 162.881 97.34 162.99L97.55 163.12C100.13 164.38 102.8 165.45 105.39 166.67C106.9 167.39 108.52 167.29 110.09 167.47C114.21 167.92 118.34 168.47 122.47 168.58C124.738 168.643 126.894 169.578 128.49 171.19Z" fill="#FDFDFD"/>
<path d="M150.34 16.37C150.3 15.9042 150.3 15.4359 150.34 14.97C150.48 14.13 149.58 12.87 150.73 12.5C151.383 12.2193 152.107 12.1484 152.802 12.2971C153.497 12.4458 154.129 12.8067 154.61 13.33C155.179 14.0772 155.545 14.9588 155.673 15.8891C155.801 16.8195 155.686 17.7671 155.34 18.64C154.85 20.22 153.43 20.47 151.99 20.72C150.93 20.9 150.52 20.64 150.52 19.56C150.52 18.48 150.41 17.46 150.34 16.37Z" fill="#FDFDFD"/>
<path d="M238.91 37.1199C238.266 40.9754 236.474 44.5474 233.77 47.3699C233.312 47.916 232.695 48.3057 232.005 48.485C231.315 48.6642 230.586 48.624 229.92 48.3699C229.137 48.1442 228.447 47.672 227.954 47.0236C227.46 46.3751 227.189 45.5848 227.18 44.7699C227.175 42.4576 227.648 40.1692 228.571 38.0489C229.493 35.9286 230.845 34.0222 232.54 32.4499C233.08 31.8811 233.8 31.5166 234.579 31.4182C235.357 31.3198 236.145 31.4935 236.81 31.9099C238.57 32.9399 239.03 34.5199 238.91 37.1199Z" fill="#FDFDFD"/>
<path d="M298.19 108.12C300.59 108.12 302.06 108.78 302.81 110.53C303.206 111.31 303.352 112.193 303.228 113.059C303.105 113.925 302.718 114.732 302.12 115.37C299.393 118.288 295.647 120.042 291.66 120.27C290.854 120.392 290.03 120.243 289.317 119.847C288.604 119.45 288.042 118.829 287.72 118.08C287.267 117.248 287.092 116.293 287.22 115.354C287.347 114.415 287.771 113.541 288.43 112.86C291.023 110.179 294.48 108.5 298.19 108.12Z" fill="#FDFDFD"/>
<path d="M116.94 32.9301C116.856 33.7244 116.723 34.5126 116.54 35.2901C115.71 38.1101 112.34 39.1601 110.37 36.9801C108.773 35.2173 107.58 33.1275 106.874 30.8564C106.168 28.5853 105.965 26.1875 106.28 23.8301C106.354 23.0451 106.675 22.304 107.199 21.7142C107.722 21.1244 108.419 20.7167 109.19 20.5501C109.937 20.3486 110.729 20.3925 111.449 20.6751C112.169 20.9578 112.779 21.4643 113.19 22.1201C115.63 25.2601 116.46 29.0201 116.94 32.9301Z" fill="#FDFDFD"/>
<path d="M60.65 51.46C60.5885 50.6528 60.7627 49.8451 61.1515 49.1351C61.5403 48.425 62.1269 47.8431 62.84 47.46C63.5156 47.0812 64.294 46.9265 65.0631 47.0181C65.8322 47.1098 66.5524 47.4431 67.12 47.97C70.3097 50.439 72.5776 53.9079 73.56 57.82C73.8545 58.725 73.8306 59.7035 73.4923 60.593C73.154 61.4825 72.5215 62.2295 71.7 62.71C69.76 63.88 68.03 63.13 66.58 61.8C63.4286 59.175 61.3243 55.5057 60.65 51.46Z" fill="#FDFDFD"/>
<path d="M304.48 129.96C304.7 129.82 304.94 129.72 305.13 129.96C305.18 130.02 305.02 130.26 304.96 130.42L304.48 129.96Z" fill="#FDFDFD"/>
<path d="M26.65 225.37C22.87 225.37 20.88 222.29 22.16 219.37C23.57 216.11 30.27 212.24 33.79 212.64C34.3531 212.697 34.8994 212.865 35.3974 213.134C35.8954 213.403 36.3355 213.768 36.6922 214.208C37.049 214.647 37.3155 215.153 37.4764 215.695C37.6373 216.238 37.6895 216.807 37.63 217.37C37.5248 218.211 37.1774 219.003 36.63 219.65C34.1357 222.738 30.5749 224.778 26.65 225.37Z" fill="#D7261E"/>
<path d="M205.77 198.65C207.417 203.697 209.61 208.549 212.31 213.12C214.684 217.157 217.397 220.984 220.42 224.56C220.778 224.941 221.028 225.411 221.144 225.92C221.26 226.43 221.238 226.961 221.08 227.46C219.639 232.784 217.15 237.768 213.76 242.12C211.118 245.669 208.21 249.012 205.06 252.12C204.887 252.366 204.666 252.575 204.409 252.733C204.153 252.891 203.868 252.996 203.57 253.04C200.67 253.16 197.86 253.65 194.95 252.29C189.51 249.75 183.86 247.64 178.32 245.29C177.152 244.797 175.885 244.584 174.62 244.67C169.01 245 163.39 245.26 157.78 245.57C156.91 245.57 156.31 245.69 156.25 244.44C155.99 239.37 153.97 234.85 151.44 230.57C151.1 230.047 150.886 229.452 150.817 228.832C150.747 228.212 150.824 227.585 151.04 227C152.9 220.94 156.32 215.8 160.3 211C161.1 210 161.95 210.36 162.84 210.43C171.63 211.17 180.31 210.62 188.3 206.59C191.15 205.16 192.88 205.52 194.94 207.59C196.62 209.27 198.62 210.59 200.65 212.28L205.77 198.65Z" fill="#1F1A17"/>
<path d="M248.95 215.6C250.02 217.21 251.02 218.6 251.95 220.1C252.48 220.98 252.9 221.23 253.76 220.47C254.615 219.713 255.575 219.083 256.61 218.6C254.73 222.6 254.05 227.05 249.46 229.5C244.87 231.95 240.63 235.28 236.21 238.17C235.237 238.753 234.482 239.638 234.06 240.69C233.31 242.55 232.28 244.31 231.71 246.22C231.04 248.44 229.32 249.51 227.65 250.72C227.41 250.89 227.08 251.3 226.81 250.92C225.92 249.67 225.06 248.4 224.26 247.09C223.74 246.22 224.57 245.59 224.88 244.91C225.6 243.34 226.49 241.84 227.28 240.29C229.77 235.36 233.43 231.78 238.85 230.23C239.739 229.984 240.551 229.518 241.212 228.875C241.873 228.232 242.36 227.432 242.63 226.55C244.163 222.598 246.295 218.905 248.95 215.6Z" fill="#1F1A17"/>
<path d="M78.0499 212.45C82.0499 213.94 82.0499 213.93 83.7699 209.86C84.4634 207.768 85.3786 205.757 86.4999 203.86L97.1899 206.56C92.6728 210.796 87.6872 214.504 82.3299 217.61C82.0778 217.767 81.7869 217.85 81.4899 217.85C81.193 217.85 80.902 217.767 80.6499 217.61C78.9599 216.81 77.2499 216.06 75.4399 215.23C76.1629 214.176 77.0431 213.238 78.0499 212.45Z" fill="#1F1A17"/>
<path d="M189.19 124.66C185.178 130.301 182.56 136.812 181.55 143.66C181.498 144.124 181.421 144.584 181.32 145.04C180.5 148.22 179.5 149.04 176.15 149.15C179 140.73 182.45 132.6 187.72 125.36C187.96 124.99 188.12 123.64 189.19 124.66Z" fill="#1F1A17"/>
<path d="M178.58 191.45L188.08 188.53L188.6 197.08L178.58 191.45Z" fill="#1F1A17"/>
<path d="M194.35 119.37C193.97 119.66 193.59 119.95 193.22 120.25L190.04 120.56C191.606 117.661 193.325 114.847 195.19 112.13C196.11 110.91 197.91 111.84 198.98 112.51C199.68 112.95 201.2 113.95 199.77 115.34L198.52 116.18C198.29 116.25 198.06 116.31 198.07 116.62H198.12C197.953 116.616 197.787 116.655 197.639 116.732C197.49 116.808 197.364 116.921 197.27 117.06L196.83 117.5L196.03 117.95L195.17 118.75L194.73 119.19L194.35 119.37Z" fill="#1F1A17"/>
<path d="M198.86 261.74L204.67 256.95C205.74 256.07 206.54 257.1 207.38 257.45C210.19 258.61 210.12 258.61 208.28 261.07C207.998 261.504 207.591 261.843 207.112 262.041C206.634 262.239 206.107 262.288 205.6 262.18C203.51 261.93 201.41 261.89 198.86 261.74Z" fill="#1F1A17"/>
<path d="M169.38 198.12C167.21 195.19 165.17 192.43 162.76 189.19C166.34 190.46 169.37 191.53 172.4 192.62C173.34 192.96 172.71 193.42 172.4 193.81C171.49 195.18 170.52 196.53 169.38 198.12Z" fill="#1F1A17"/>
<path d="M218.04 195.12C218.28 195.89 218.41 196.26 218.52 196.64C219.74 200.88 219.52 201.21 214.79 202L218.04 195.12Z" fill="#1F1A17"/>
<path d="M145.02 193.23L152.79 192.79C150.45 196.37 149.48 196.46 145.02 193.23Z" fill="#1F1A17"/>
<path d="M205.05 185.6L210.05 187.36C210.05 188.31 209.68 188.66 208.72 188.55C206.56 188.3 204.39 188.13 201.6 187.86L205.05 185.6Z" fill="#1F1A17"/>
<path d="M151.6 186.78C153.6 187.17 153.29 185.09 154.23 184.36C154.58 185.84 154.93 187.36 155.35 189.12C153.8 188.43 152.48 187.99 151.6 186.78Z" fill="#1F1A17"/>
<path d="M183.71 155.52C183.71 156.34 183.1 156.52 182.71 156.76C176.108 160.962 169.187 164.64 162.01 167.76C132.58 180.41 103.23 193.27 73.85 206.05C71.7 206.98 70.77 206.77 70.09 205.05C69.47 203.51 70.02 202.55 71.54 201.9C76.54 199.75 81.45 197.52 86.41 195.34L147.19 168.69C154.19 165.6 161.19 162.39 168.34 159.46C172.86 157.6 177.7 156.71 182.4 155.41C182.84 155.371 183.283 155.409 183.71 155.52Z" fill="#FDFDFD"/>
<path d="M252.64 149.76C252.643 158.495 249.196 166.877 243.05 173.084C236.903 179.29 228.555 182.818 219.82 182.9C201.82 182.97 186.88 167.98 186.82 149.9C186.82 131.64 201.51 116.52 219.38 116.49C223.724 116.462 228.03 117.291 232.053 118.929C236.076 120.567 239.737 122.982 242.826 126.035C245.915 129.089 248.372 132.722 250.056 136.726C251.74 140.73 252.618 145.026 252.64 149.37V149.76ZM250.75 149.51C250.742 145.439 249.931 141.41 248.365 137.652C246.8 133.894 244.509 130.481 241.624 127.609C235.799 121.807 227.907 118.558 219.685 118.575C211.463 118.592 203.585 121.875 197.784 127.701C191.982 133.526 188.733 141.418 188.75 149.64C188.84 166.96 202.75 181.04 219.75 180.98C223.838 180.963 227.883 180.141 231.653 178.561C235.424 176.98 238.846 174.673 241.724 171.77C244.603 168.868 246.882 165.426 248.43 161.643C249.979 157.859 250.767 153.808 250.75 149.72V149.51Z" fill="#FDFDFD"/>
<path d="M188.96 166.93C185.18 169.4 181.62 171.61 178.18 173.99C174.34 176.64 169.91 177.99 165.83 180.18C164.801 180.801 163.643 181.178 162.445 181.284C161.248 181.39 160.042 181.221 158.92 180.79C155.77 179.68 155.49 179.99 154 183C152.26 186.49 152.26 186.49 148.59 185C147.24 184.45 145.9 183.86 144.59 183.31C144.65 182.31 145.38 182.31 145.87 182.06C154.42 178.26 162.87 174.22 171.6 170.82C176.29 168.99 181.42 168.26 186.36 167.06C186.761 166.861 187.199 166.747 187.646 166.725C188.094 166.703 188.541 166.772 188.96 166.93Z" fill="#FDFDFD"/>
<path d="M198.56 116.12L199.81 115.28C199.82 116.21 199.19 116.21 198.56 116.12Z" fill="#FDFDFD"/>
<path d="M195.35 118.55L196.21 117.75C196.19 118.28 195.96 118.63 195.35 118.55Z" fill="#FDFDFD"/>
<path d="M196.19 117.76L196.99 117.31C196.97 117.88 196.51 117.68 196.19 117.76Z" fill="#FDFDFD"/>
<path d="M197.36 116.94C197.454 116.801 197.58 116.689 197.729 116.612C197.877 116.535 198.043 116.496 198.21 116.5C198.12 117 197.76 117.02 197.36 116.94Z" fill="#FDFDFD"/>
<path d="M198.19 116.54C198.19 116.23 198.41 116.17 198.64 116.1C198.66 116.46 198.45 116.54 198.19 116.54Z" fill="#FDFDFD"/>
<path d="M196.96 117.37L197.4 116.93C197.42 117.22 197.19 117.37 196.96 117.37Z" fill="#FDFDFD"/>
<path d="M194.35 119.37L195 118.93C194.92 119.27 194.63 119.31 194.35 119.37Z" fill="#FDFDFD"/>
<path d="M194.95 118.96L195.39 118.52C195.395 118.573 195.391 118.626 195.375 118.676C195.36 118.727 195.335 118.774 195.302 118.815C195.268 118.856 195.227 118.89 195.18 118.915C195.134 118.94 195.083 118.955 195.03 118.96H194.95Z" fill="#FDFDFD"/>
<path d="M250.75 149.51C250.838 157.766 247.644 165.718 241.87 171.619C236.097 177.521 228.216 180.888 219.96 180.98H219.75C202.75 181.04 188.83 166.98 188.75 149.64C188.742 145.569 189.535 141.536 191.085 137.772C192.635 134.008 194.911 130.585 197.784 127.701C203.585 121.875 211.463 118.592 219.685 118.575C227.907 118.558 235.799 121.807 241.624 127.609C247.45 133.41 250.733 141.288 250.75 149.51ZM243.26 135.76C243.266 135.707 243.261 135.654 243.245 135.604C243.23 135.553 243.205 135.506 243.172 135.465C243.138 135.424 243.097 135.39 243.05 135.365C243.004 135.34 242.953 135.325 242.9 135.32C242.772 135.023 242.611 134.741 242.42 134.48C240.495 132.592 237.986 131.415 235.304 131.14C232.623 130.866 229.927 131.511 227.66 132.97C225.432 134.379 223.767 136.523 222.955 139.031C222.142 141.539 222.232 144.252 223.21 146.7C224.296 149.248 226.24 151.334 228.704 152.596C231.169 153.859 233.998 154.218 236.7 153.61C239.277 153.073 241.589 151.66 243.241 149.611C244.893 147.561 245.783 145.002 245.76 142.37C245.76 141.78 246.14 140.82 245.23 140.68C244.32 140.54 244.66 141.57 244.4 142.04C243.972 142.881 243.315 143.583 242.504 144.066C241.694 144.55 240.763 144.793 239.82 144.77C238.843 144.74 237.897 144.417 237.105 143.843C236.313 143.269 235.712 142.47 235.38 141.55C235.059 140.735 234.992 139.843 235.188 138.989C235.384 138.136 235.835 137.362 236.48 136.77C238.28 134.9 240.38 135.02 242.59 135.77L242.91 136.01C243.03 136.28 243.16 136.72 243.49 136.5C243.82 136.28 243.7 135.89 243.26 135.74V135.76Z" fill="#BF9F62"/>
<path d="M242.61 135.8C240.4 135.04 238.3 134.92 236.5 136.8C235.855 137.392 235.404 138.166 235.208 139.019C235.011 139.873 235.078 140.766 235.4 141.58C235.732 142.5 236.333 143.299 237.125 143.873C237.916 144.447 238.862 144.77 239.84 144.8C240.783 144.824 241.714 144.58 242.524 144.097C243.335 143.613 243.992 142.911 244.42 142.07C244.68 141.6 244.42 140.58 245.25 140.71C246.08 140.84 245.77 141.81 245.78 142.4C245.797 145.032 244.902 147.588 243.246 149.634C241.591 151.68 239.277 153.088 236.7 153.62C233.994 154.23 231.16 153.872 228.692 152.607C226.223 151.343 224.276 149.252 223.19 146.7C222.21 144.254 222.117 141.543 222.926 139.035C223.735 136.528 225.395 134.382 227.62 132.97C229.887 131.511 232.582 130.866 235.264 131.14C237.946 131.415 240.455 132.592 242.38 134.48C242.571 134.741 242.732 135.023 242.86 135.32L242.61 135.8Z" fill="#FDFDFD"/>
<path d="M243.26 135.76C243.7 135.91 243.91 136.25 243.51 136.53C243.11 136.81 243.05 136.31 242.93 136.04L243.26 135.76Z" fill="#FDFDFD"/>
<path d="M242.88 135.37C242.933 135.373 242.984 135.386 243.032 135.408C243.079 135.431 243.122 135.462 243.157 135.501C243.192 135.54 243.22 135.586 243.237 135.635C243.255 135.685 243.263 135.738 243.26 135.79L242.93 136.07L242.61 135.83L242.88 135.37Z" fill="#FDFDFD"/>
</svg>
